PathFileType	4	(X/Y/Z)	C:/Users/beibeiliu/ov580/test_trc/capture2\sequence.37_training_dense_left.trc
DataRate	CameraRate	NumFrames	NumMarkers	Units	OrigDataRate	OrigDataStartFrame	OrigNumFrames
120	120	23	19	mm	120	324	370
Frame#	Time	ThumbCMC			ThumbMCP			ThumbIP			ThumbTip			IndexMCP			IndexPIP			IndexTip			MiddleMCP			MiddlePIP			MiddleTip			RingMCP			RingPIP			RingTip			PinkyMCP			PinkyPIP			PinkyTip			BackHand1			BackHand2			BackHand3	
		X0	Y0	Z0	X1	Y1	Z1	X2	Y2	Z2	X3	Y3	Z3	X4	Y4	Z4	X5	Y5	Z5	X6	Y6	Z6	X7	Y7	Z7	X8	Y8	Z8	X9	Y9	Z9	X10	Y10	Z10	X11	Y11	Z11	X12	Y12	Z12	X13	Y13	Z13	X14	Y14	Z14	X15	Y15	Z15	X16	Y16	Z16	X17	Y17	Z17	X18	Y18	Z18	
323	2.69167	-149.031	60.9798	3.95223	-133.993	66.4313	-18.2463	-128.092	65.7301	-43.3793	-123.837	49.6889	-65.6686	-148.807	33.989	-67.6574	-123.342	34.4458	-81.9673	-98.1732	37.0822	-53.8332	-145.552	18.018	-69.5981	-114.218	17.8868	-76.7077	-97.7654	27.2097	-42.3521	-141.257	-0.639764	-65.0011	-111.046	-1.86242	-66.3106	-98.1652	12.4172	-36.556	-139.827	-15.204	-48.1274	-110.592	-12.7231	-56.1311	-90.7458	4.73836	-36.5731	-174.76	-0.241537	-11.0859	-175.695	6.68488	13.7755	-175.567	38.1095	-5.51528	
324	2.7	-148.441	59.9941	3.45463	-134.037	63.8024	-19.0504	-128.349	66.1825	-48.0444	-123.571	50.2007	-66.3154	-149.48	33.1216	-66.1967	-121.302	29.8948	-79.9038	-98.2909	36.1569	-56.1492	-147.05	15.9659	-68.1698	-115.46	12.7676	-77.3462	-97.252	21.4847	-46.3375	-141.009	-0.00221425	-64.2763	-112.237	0.105741	-68.0909	-97.914	12.6252	-36.6426	-141.522	-15.2456	-46.8982	-109.478	-14.4283	-55.1714	-92.8099	5.75807	-38.6131	-174.694	-0.681506	-13.7538	-176.364	5.36763	15.7349	-176.822	34.1901	-3.28521	
325	2.70833	-148.962	60.8986	2.53173	-133.542	68.1942	-22.0949	-129.088	65.6122	-50.8105	-123.813	48.6014	-68.0459	-148.762	33.0444	-65.9367	-120.396	31.7133	-79.742	-98.3876	35.7701	-56.4879	-144.657	15.2254	-71.0544	-114.622	12.9235	-76.7516	-97.3174	24.9268	-46.4792	-142.267	-3.92292	-62.2566	-107.719	-1.28514	-65.6985	-97.3124	13.3735	-38.81	-140.35	-16.2057	-48.6231	-108.792	-11.7573	-56.4617	-91.6125	5.09721	-37.5749	-173.341	1.25801	-15.8396	-174.776	4.83472	12.4935	-174.438	36.5813	-5.21707	
326	2.71667	-148.092	56.5506	3.66989	-133.254	66.6664	-22.1863	-127.43	65.7383	-44.9222	-123.548	49.1578	-68.9404	-148.821	33.6804	-67.2818	-116.836	32.3754	-79.7842	-97.6477	39.4695	-55.008	-145.633	16.156	-69.7576	-111.597	13.4126	-75.1751	-95.757	25.4581	-48.477	-141.909	-1.2856	-63.6607	-110.474	-0.609538	-66.4788	-98.2645	15.4196	-39.6317	-136.981	-15.7036	-51.3714	-107.787	-12.6616	-55.4378	-89.6541	4.44616	-40.7632	-173.525	-1.57442	-16.741	-177.406	5.23243	12.2782	-175.71	33.608	-5.04434	
327	2.725	-148.167	57.3754	3.21874	-132.045	68.4222	-19.6492	-126.703	65.2265	-48.3397	-122.385	53.0152	-68.4262	-150.332	34.7347	-66.1974	-119.864	30.5654	-78.9457	-98.5327	36.7342	-57.2375	-144.509	17.4943	-71.8425	-112.601	14.6841	-75.6262	-95.9252	24.161	-46.524	-139.892	-3.07365	-64.4744	-110.314	-0.416755	-67.7824	-97.4128	15.7093	-37.7866	-138.299	-14.6887	-50.6181	-110.513	-15.0787	-56.5064	-90.653	4.9909	-37.7288	-172.479	-0.638621	-13.7082	-175.266	5.69159	16.2763	-175.507	33.4828	-4.87158	
328	2.73333	-148.811	61.6135	2.55426	-132.73	66.2357	-19.6002	-127.83	65.6963	-48.069	-121.765	54.5086	-66.7976	-151.116	39.084	-67.0167	-118.443	33.8401	-80.4659	-98.6651	37.0685	-58.4022	-146.556	18.0431	-69.7334	-115.891	14.3989	-77.4926	-96.6049	27.833	-47.2632	-142.098	-1.58825	-61.6463	-112.431	-0.447731	-68.4016	-98.1943	15.7852	-41.4503	-139.052	-19.2116	-48.0096	-109.906	-12.1431	-56.6051	-90.4523	7.10381	-38.1704	-172.815	-0.865183	-17.0913	-176.33	3.88376	13.0852	-177.58	37.0913	-5.62753	
329	2.74167	-149.245	58.0486	5.38648	-133.743	68.4963	-20.8313	-127.292	72.153	-47.4444	-120.74	60.6558	-69.3978	-149.782	37.4443	-70.0692	-121.763	37.4113	-82.1925	-98.5833	36.6706	-58.2485	-147.659	19.3343	-69.4355	-114.63	15.732	-77.8013	-95.7091	25.8697	-45.199	-142.832	-4.057	-62.1502	-109.367	1.95783	-67.5318	-96.0364	13.7519	-41.0203	-137.332	-15.6425	-51.0638	-112.054	-9.80253	-58.7033	-89.994	3.05804	-41.1375	-173.512	-1.17972	-15.9257	-174.658	3.81367	12.5962	-176.084	33.7	-4.00968	
330	2.75	-149.46	61.8992	2.76537	-134.154	68.4748	-18.5763	-128.694	71.1697	-45.9695	-120.889	70.7693	-66.9381	-152.134	38.5404	-66.3703	-123.385	33.1787	-82.8488	-97.9713	39.1086	-65.4041	-146.262	17.9808	-71.477	-114.572	17.1906	-78.7624	-95.3192	22.8084	-47.5508	-143.891	0.117294	-61.2985	-110.731	4.95362	-68.2102	-96.6754	18.0951	-43.1526	-138.364	-17.8857	-51.3857	-109.648	-10.548	-57.4841	-90.5987	5.11566	-43.7189	-174.39	4.22209	-13.484	-177.281	6.08461	13.9884	-176.039	34.9237	-3.47445	
331	2.75833	-149.811	58.85	8.20728	-134.346	71.3673	-19.5287	-127.813	77.4084	-40.8316	-122.207	73.411	-68.8428	-151.409	37.8991	-69.2442	-126.537	31.9306	-82.6065	-97.2015	35.2986	-62.3842	-149.486	20.2681	-68.1972	-117.166	16.1081	-79.1676	-94.8248	26.6879	-46.999	-142.692	0.439054	-62.4052	-113.703	2.39515	-70.0142	-95.9777	13.7697	-43.6714	-141.007	-15.1045	-47.3664	-109.654	-12.7231	-56.915	-87.7318	4.3641	-41.3832	-173.273	5.32777	-11.3806	-176.769	7.77893	19.021	-177.536	35.5967	-0.987016	
332	2.76667	-149.946	59.7724	4.33261	-133.98	68.4604	-15.1024	-128.161	76.5465	-39.8268	-122.933	78.4487	-61.498	-152.254	39.5895	-65.4738	-123.577	33.4978	-82.6302	-98.139	33.9634	-62.9891	-146.382	18.2921	-70.6971	-118.038	19.396	-79.9846	-95.5023	22.6519	-49.159	-142.897	-4.05094	-61.2747	-111.432	-0.789396	-67.9869	-96.0898	15.7313	-44.2339	-141.472	-13.7891	-46.2445	-109.025	-11.0265	-56.742	-89.1721	1.05968	-41.8639	-173.063	3.12794	-12.4427	-178.468	3.73234	15.9733	-177.569	33.9938	-0.782928	
333	2.775	-150.887	62.1767	4.50963	-134.722	72.9282	-14.379	-128.914	79.7852	-39.836	-123.922	81.452	-62.1753	-152.628	37.4685	-64.0581	-128.511	35.4	-84.1043	-98.9186	37.5558	-67.5181	-147.402	19.2158	-69.5404	-116.044	17.3932	-78.2211	-95.3227	24.2061	-49.2907	-143.844	-1.60631	-60.6334	-112.864	0.443739	-67.6364	-95.5679	13.9535	-39.3242	-138.101	-15.9755	-48.578	-115.026	-12.1278	-57.3557	-89.7674	2.8283	-44.7173	-172.227	2.74606	-15.5354	-176.633	8.84524	17.915	-178.051	36.9847	-3.30754	
334	2.78333	-150.69	58.2988	6.68146	-135.593	70.6543	-15.3318	-130.738	78.1237	-41.5062	-124.186	81.4093	-59.5215	-151.769	35.6603	-65.5371	-127.504	34.6283	-83.0548	-97.451	36.2919	-63.9309	-148.816	19.5214	-66.4104	-117.878	17.3072	-78.9429	-95.3926	27.67	-49.2384	-143.119	1.91268	-64.0655	-110.736	0.0123756	-66.7833	-96.4661	14.5936	-44.5707	-141.283	-14.5296	-46.3101	-111.814	-12.8529	-55.4775	-89.4136	3.84033	-41.5164	-173.809	4.11478	-12.3771	-177.928	8.9773	16.6286	-176.832	39.0414	-2.7981	
335	2.79167	-151.671	63.0575	4.3903	-136.129	67.3947	-15.5243	-130.996	76.9597	-40.2753	-125.371	80.4529	-63.2077	-152.821	38.9425	-65.0473	-127.052	34.7714	-83.3571	-99.2572	34.0516	-66.2775	-146.408	20.0417	-70.1821	-115.238	20.1873	-78.4627	-95.0946	23.9328	-48.3317	-145.221	1.80715	-61.197	-113.474	-0.744097	-68.2515	-95.3438	16.5656	-41.461	-139.397	-17.3225	-46.9768	-111.709	-8.89811	-55.568	-90.9656	3.88681	-41.8451	-174.593	4.64534	-14.1738	-179.162	9.28354	18.3567	-176.311	33.3083	-2.58771	
336	2.8	-151.448	57.4573	6.90787	-135.994	68.8482	-13.6762	-131.039	76.0199	-42.1552	-125.15	82.493	-64.9805	-152.18	38.5815	-66.581	-128.606	33.7985	-82.8256	-97.5645	37.5796	-65.8127	-147.648	17.2009	-68.7134	-115.645	20.2543	-77.2386	-93.7949	25.3479	-50.231	-143.25	-3.50899	-59.658	-111.23	2.19093	-66.3876	-95.4755	17.6658	-41.5814	-139.547	-15.1742	-48.909	-109.195	-10.9603	-55.3215	-91.5347	5.62701	-42.8731	-174.551	4.45375	-10.7407	-178.578	9.59315	18.6424	-178.38	33.5035	-4.29204	
337	2.80833	-151.36	61.3466	4.96994	-135.555	72.556	-16.3695	-130.728	77.4138	-37.3011	-124.518	84.4882	-63.8248	-152.323	37.7638	-66.6985	-125.659	32.4649	-80.9931	-97.1847	37.9933	-64.9951	-147.546	16.5493	-69.2077	-117.075	19.7202	-78.419	-94.5374	24.6665	-49.9502	-145.147	0.682122	-58.925	-110.365	0.399466	-65.4426	-94.6739	13.2437	-42.0798	-140.142	-17.7235	-46.0399	-110.705	-14.0056	-54.3239	-89.7528	1.61362	-41.6336	-173.319	0.133028	-13.1163	-178.974	7.10212	14.8106	-178.756	35.3656	-1.66454	
338	2.81667	-150.939	60.5306	6.63929	-135.626	69.2727	-17.1808	-129.55	78.3325	-37.0952	-124.181	84.1045	-62.9832	-151.153	37.673	-66.3762	-126.246	32.948	-81.6023	-96.4137	38.0008	-63.549	-148.511	20.8595	-68.1297	-114.307	18.0753	-76.0038	-93.8772	24.7376	-49.6702	-142.044	-0.659771	-63.7819	-109.475	0.384368	-65.4911	-95.7291	15.9933	-40.6494	-139.685	-14.4312	-47.521	-112.229	-9.24789	-56.4348	-88.8585	0.278451	-42.3704	-175.73	1.33056	-12.8446	-177.83	8.60961	16.9095	-175.716	36.9345	-4.45546	
339	2.825	-150.784	59.2123	5.35657	-134.698	70.2038	-15.303	-127.895	81.1662	-40.0305	-123.543	79.3579	-65.4869	-152.434	36.5673	-64.5973	-123.574	37.3027	-81.9429	-96.5825	36.8053	-62.5946	-145.797	18.5236	-70.0535	-113.396	16.6247	-74.567	-94.5345	22.6216	-46.7285	-144.456	-3.59164	-59.6663	-116.079	1.69579	-68.349	-95.8024	15.0713	-41.8892	-140.789	-14.693	-47.6154	-110.81	-10.5981	-56.3067	-90.7676	6.71964	-42.8611	-173.955	5.35132	-13.9272	-178.711	8.86016	15.2234	-178.628	34.5571	-4.56452	
340	2.83333	-150.085	58.0878	5.89811	-133.395	69.5063	-18.292	-128.078	74.817	-39.4153	-122.515	78.1376	-65.9206	-151.044	41.1767	-66.574	-123.732	33.6226	-80.819	-99.2476	36.5874	-61.7868	-146.534	21.162	-70.8443	-114.294	16.8636	-75.0834	-96.1559	22.3236	-47.5528	-142.64	1.77965	-63.858	-112.047	0.384551	-66.1609	-96.8585	14.409	-43.1166	-141.553	-13.8121	-48.0003	-112.597	-10.4108	-57.179	-88.2701	4.22118	-40.6658	-173.74	0.297059	-14.7808	-176.432	6.15828	15.2617	-178.273	35.1676	-3.39981	
341	2.84167	-148.815	61.8118	5.34803	-133.599	67.5757	-21.4049	-126.185	73.0969	-43.4404	-121.016	72.9189	-66.7748	-150.392	38.0243	-67.5072	-120.828	37.2551	-79.8413	-97.8797	37.0804	-53.5729	-146.931	18.554	-70.0989	-116.237	16.8217	-75.8005	-97.7163	24.3947	-42.3517	-142.69	3.31296	-64.1427	-115.337	3.71061	-67.3503	-99.4525	15.6567	-40.6279	-138.597	-16.9163	-51.7637	-114.668	-9.45274	-57.5922	-91.8701	4.37128	-43.1938	-173.579	5.57472	-13.2432	-176.446	7.03493	15.5487	-177.685	37.2394	-3.8146	
342	2.85	-148.469	62.6614	1.72487	-132.206	67.4926	-23.6988	-123.98	72.7152	-47.0058	-119.408	68.5615	-71.6107	-148.307	38.993	-70.1074	-118.37	39.4373	-77.2283	-101.167	38.4736	-48.9093	-148.089	21.151	-68.5621	-115.274	18.382	-75.135	-99.9194	27.3421	-42.47	-142.191	-1.68542	-63.2733	-110.922	7.29048	-65.3532	-102.341	18.494	-35.0011	-141.992	-14.2976	-48.1832	-110.787	-10.1914	-56.4222	-92.5598	4.85529	-38.1789	-175.893	1.08918	-12.6953	-178.873	9.56775	12.5805	-179.032	34.2876	-3.05022	
343	2.85833	-149.129	57.6992	-0.178499	-130.71	64.1396	-20.0513	-124.931	68.1734	-50.9564	-119.558	59.3647	-73.1213	-147.713	41.3465	-68.7487	-116.305	36.8802	-74.8085	-103.234	42.6151	-46.2187	-144.601	19.0718	-71.3399	-110.829	22.199	-71.3197	-102.367	28.5319	-39.3306	-141.018	2.84504	-63.1333	-108.613	6.87178	-62.407	-102.582	15.7705	-31.2039	-139.45	-11.9987	-52.9931	-111.14	-9.10445	-55.7605	-94.3296	6.30968	-37.9763	-174.256	1.32807	-15.4347	-176.8	6.48839	12.2235	-178.966	35.1641	-4.63524	
344	2.86667	-147.502	62.2394	2.59081	-132.396	63.4898	-24.6946	-124.401	66.9115	-47.9959	-118.984	60.901	-69.9673	-148.223	39.0536	-68.1674	-117.082	41.3948	-75.7574	-105.541	40.7337	-42.9914	-143.361	18.4794	-69.841	-110.515	21.8343	-69.4965	-105.875	30.5371	-32.7594	-139.826	0.27465	-62.7607	-110.348	7.33701	-62.848	-105.972	21.7735	-30.0451	-141.365	-12.1042	-50.2315	-111.344	-4.35558	-55.0883	-94.1688	9.11045	-34.8746	-176.169	4.06327	-15.1707	-177.846	7.19249	13.31	-178.304	36.6917	-8.23856	
345	2.875	-148.513	62.0529	0.157849	-131.183	62.7378	-21.837	-124.13	66.1727	-49.2221	-119.778	59.9741	-75.8737	-148.04	38.6463	-68.1853	-114.059	39.6083	-72.5364	-104.846	43.3247	-43.7297	-144.364	16.0511	-68.4101	-111.4	22.976	-70.0118	-106.086	27.7611	-33.6425	-138.71	-1.38778	-64.0408	-110.518	6.18515	-62.5556	-105.154	17.9684	-30.6853	-139.376	-13.7371	-51.2777	-109.024	-6.33324	-53.4266	-95.7219	8.4748	-29.7737	-175.317	2.12976	-14.0574	-176.595	8.65657	14.0458	-176.23	34.9564	-4.65023	
